<svg xmlns="http://www.w3.org/2000/svg" xmlns:xlink="http://www.w3.org/1999/xlink" width="112" height="16" viewBox="0 0 112 16">
  <metadata><?xpacket begin="﻿" id="W5M0MpCehiHzreSzNTczkc9d"?>
<x:xmpmeta xmlns:x="adobe:ns:meta/" x:xmptk="Adobe XMP Core 5.6-c138 79.159824, 2016/09/14-01:09:01        ">
   <rdf:RDF xmlns:rdf="http://www.w3.org/1999/02/22-rdf-syntax-ns#">
      <rdf:Description rdf:about=""/>
   </rdf:RDF>
</x:xmpmeta>
                                                                                                    
                                                                                                    
                                                                                                    
                                                                                                    
                                                                                                    
                                                                                                    
                                                                                                    
                                                                                                    
                                                                                                    
                                                                                                    
                                                                                                    
                                                                                                    
                                                                                                    
                                                                                                    
                                                                                                    
                                                                                                    
                                                                                                    
                                                                                                    
                                                                                                    
                                                                                                    
                           
<?xpacket end="w"?></metadata>
<defs>
    <style>
      .cls-1 {
        filter: url(#filter);
      }

      .cls-2 {
        fill: #fff;
        fill-rule: evenodd;
      }
    </style>
    <filter id="filter" filterUnits="userSpaceOnUse">
      <feFlood result="flood"/>
      <feComposite result="composite" operator="in" in2="SourceGraphic"/>
      <feBlend result="blend" in2="SourceGraphic"/>
    </filter>
  </defs>
  <g class="cls-1">
    <path class="cls-2" d="M595.159,114.076l1.115-1.085L601,117.6l-1.115,1.086Z" transform="translate(-489 -113)"/>
    <path id="Shape_3_copy" data-name="Shape 3 copy" class="cls-2" d="M601,114.076l-1.115-1.085-4.73,4.606,1.115,1.086Z" transform="translate(-489 -113)"/>
    <path id="bwork" class="cls-2" d="M489,128.682h9.962a4.957,4.957,0,0,0,2.26-.515,3.935,3.935,0,0,0,2.215-3.624,3.785,3.785,0,0,0-.742-2.4,3.965,3.965,0,0,0-2-1.347,3.734,3.734,0,0,0,1.428-1.325,3.652,3.652,0,0,0,.528-1.982,3.98,3.98,0,0,0-.562-2.08,4.09,4.09,0,0,0-1.574-1.5,4.755,4.755,0,0,0-2.339-.559H489v15.331Zm4.273-9.264v-2.76h3.463a1.86,1.86,0,0,1,1.226.351,1.481,1.481,0,0,1,0,2.058,1.86,1.86,0,0,1-1.226.351h-3.463Zm0,5.935v-2.782h4.183a1.952,1.952,0,0,1,1.27.362,1.273,1.273,0,0,1,.439,1.04,1.245,1.245,0,0,1-.439,1.018,1.952,1.952,0,0,1-1.27.362h-4.183Zm18.574,3.329h3.6l2.879-8.323,2.878,8.323h3.621l5.082-15.134v-0.2h-4.475l-2.631,9-2.969-8.563h-3.013l-2.946,8.563-2.631-9h-4.5v0.2Zm29.931,0.328a9.064,9.064,0,0,0,4.475-1.073,7.513,7.513,0,0,0,2.969-2.9,8.326,8.326,0,0,0,0-8.037,7.519,7.519,0,0,0-2.969-2.9,9.86,9.86,0,0,0-8.95,0,7.592,7.592,0,0,0-2.979,2.9,8.242,8.242,0,0,0,0,8.037,7.585,7.585,0,0,0,2.979,2.9,9.064,9.064,0,0,0,4.475,1.073h0Zm0-3.9a4.449,4.449,0,0,1-2.2-.526,3.606,3.606,0,0,1-1.451-1.456,4.667,4.667,0,0,1,0-4.227,3.689,3.689,0,0,1,1.451-1.467,4.789,4.789,0,0,1,4.407,0,3.614,3.614,0,0,1,1.439,1.467,4.432,4.432,0,0,1,.5,2.113,4.059,4.059,0,0,1-1.113,2.946,4.014,4.014,0,0,1-3.025,1.15h0Zm25.276-1.905a4.847,4.847,0,0,0,2.047-1.84,5.16,5.16,0,0,0,.742-2.76,5.015,5.015,0,0,0-2.778-4.588,6.252,6.252,0,0,0-2.912-.668h-8.477v15.331h4.272v-4.818h3.013l3.284,4.818h4.5v-0.2Zm-7.106-6.22h3.643a2.141,2.141,0,0,1,1.439.46,1.712,1.712,0,0,1,0,2.5,2.141,2.141,0,0,1-1.439.46h-3.643v-3.416Zm25.276,2.869,5.622-6.308v-0.2h-5.06l-5.869,6.767v-6.767H575.64v15.331h4.273v-2.847l2.541-2.869,3.845,5.716h4.677v-0.2Z" transform="translate(-489 -113)"/>
  </g>
</svg>
